<?xml version="1.0" encoding="utf-8"?>
<!-- Generator: Adobe Illustrator 25.2.1, SVG Export Plug-In . SVG Version: 6.00 Build 0)  -->
<svg version="1.1" id="Flexibility" xmlns="http://www.w3.org/2000/svg" xmlns:xlink="http://www.w3.org/1999/xlink" x="0px"
	 y="0px" viewBox="0 0 170.1 170.1" style="enable-background:new 0 0 170.1 170.1;" xml:space="preserve">
<style type="text/css">
	.st0{fill:#4069FA;}
</style>
<path class="st0" d="M43.9,72.7c0,1,0,1.6,0,2.2c0,11,0,22.1,0,33.1c0,1.5-0.3,2.3-2,2.1c-1.4-0.1-2.8,0-4.5,0c0-0.9,0-1.7,0-2.4
	c0-12.7,0-25.5,0-38.2c0-3,1.2-5,3.7-6.5c13.5-7.8,27-15.6,40.5-23.3c1.1-0.6,1.5-1.3,1.5-2.6c-0.1-3,0-5.9-0.4-9
	c-1,1.5-2,3-3.1,4.7c-1.8-1.1-3.6-2.3-5.4-3.5c1.3-2,2.4-3.8,3.6-5.7c1.7-2.7,3.5-5.4,5.2-8.2c0.5-0.8,1.1-1.1,2-1.2
	c2.8-0.4,4.4,0.6,5.8,3.1c2.3,4.1,5,7.9,7.6,12c-1.8,1.2-3.6,2.3-5.4,3.5c-1.1-1.7-2.1-3.2-3.1-4.7c-0.1,0-0.2,0.1-0.3,0.1
	c0,12.8,0,25.7,0,38.8c-2,0-3.9,0.1-5.8-0.1c-0.3,0-0.7-0.9-0.7-1.4C83,59.8,83.1,54,83,48.3c0-0.5,0-1,0-2
	C71,53.2,59.2,60,47.2,66.9c0.6,0.4,1,0.7,1.5,1c12.1,7,24.1,13.9,36.2,20.9c1,0.6,1.8,0.7,2.9,0c12-7,24.1-14,36.2-20.9
	c0.4-0.3,0.9-0.5,1.5-1c-10.5-6.1-20.8-12-31.2-18c1.1-1.9,2.1-3.7,3.2-5.6c3.6,2.1,7.2,4.1,10.8,6.2c7.6,4.4,15.2,8.9,22.9,13.2
	c3,1.7,4.2,4,4.2,7.3c-0.1,15.1,0,30.2-0.1,45.4c0,1.9,0.6,3,2.3,3.8c2.4,1.2,4.7,2.6,7.2,3.7c-0.8-1.6-1.6-3.2-2.5-5
	c1.9-1,3.7-1.9,5.7-3c0.5,0.9,0.9,1.7,1.3,2.5c2.1,3.9,4.1,7.9,6.2,11.8c0.6,1.1,0.5,1.9,0.1,3.1c-0.8,2.2-2.2,2.9-4.5,2.9
	c-5,0-9.9,0.4-15.1,0.6c-0.1-2.1-0.3-4.2-0.4-6.6c2,0,3.8,0,5.7,0c0-0.2,0.1-0.3,0.1-0.5c-11.1-6.4-22.3-12.9-33.6-19.4
	c1.1-1.9,2.1-3.7,3.2-5.6c5.9,3.4,11.8,6.8,17.8,10.2c0-13.8,0-27.5,0-41.2c-0.6,0.3-1.1,0.6-1.6,0.8c-12,6.9-23.9,13.8-35.9,20.7
	c-1.1,0.6-1.5,1.3-1.5,2.6c0.1,13.9,0,27.9,0,41.9c0,0.5,0,0.9,0.1,1.7c10.9-6.3,21.5-12.4,32.4-18.7c1.1,1.9,2.1,3.7,3.2,5.5
	c-0.5,0.3-0.9,0.6-1.3,0.8c-11.2,6.5-22.5,13-33.7,19.5c-2.7,1.6-5.2,1.6-7.9,0c-13.4-7.8-26.8-15.5-40.2-23.3c-1.1-0.6-1.9-0.7-3,0
	c-2.5,1.6-5.1,3-7.6,4.5c0,0.1,0,0.3,0.1,0.4c1.8,0.1,3.5,0.2,5.3,0.3c0,2.2,0,4.3,0,6.5c-1.7-0.1-3.3-0.2-4.8-0.2
	c-4-0.2-7.9-0.4-11.9-0.5c-1,0-1.5-0.4-2-1.3c-1.3-2.3-1.2-4.2,0.1-6.6c2.2-3.6,3.9-7.4,5.8-11.1c0.2-0.4,0.4-0.7,0.7-1.2
	c1.9,1,3.7,1.9,5.6,2.9c-0.9,1.7-1.7,3.3-2.5,4.9c0.1,0.1,0.2,0.2,0.3,0.4c11.1-6.4,22.2-12.8,33.5-19.3c1.1,1.9,2.1,3.7,3.2,5.6
	c-5.9,3.4-11.7,6.8-17.9,10.4c12,6.9,23.8,13.7,35.8,20.7c0.1-0.7,0.1-1.2,0.1-1.6c0-13.8,0-27.6,0.1-41.4c0-1.7-0.5-2.5-1.9-3.3
	c-11.9-6.8-23.8-13.7-35.7-20.5C45.1,73.3,44.7,73.1,43.9,72.7z"/>
</svg>
